<?xml version="1.0" encoding="UTF-8" standalone="no"?>
<svg
   viewBox="0 0 512 512"
   x="0px"
   y="0px"
   version="1.1"
   id="svg18"
   sodipodi:docname="noun_game ui basic bag_2360124.svg"
   width="512"
   height="512"
   inkscape:version="1.1.1 (3bf5ae0d25, 2021-09-20, custom)"
   xmlns:inkscape="http://www.inkscape.org/namespaces/inkscape"
   xmlns:sodipodi="http://sodipodi.sourceforge.net/DTD/sodipodi-0.dtd"
   xmlns="http://www.w3.org/2000/svg"
   xmlns:svg="http://www.w3.org/2000/svg"
   xmlns:rdf="http://www.w3.org/1999/02/22-rdf-syntax-ns#"
   xmlns:cc="http://creativecommons.org/ns#"
   xmlns:dc="http://purl.org/dc/elements/1.1/">
  <defs
     id="defs22" />
  <sodipodi:namedview
     id="namedview20"
     pagecolor="#ffffff"
     bordercolor="#666666"
     borderopacity="1.0"
     inkscape:pageshadow="2"
     inkscape:pageopacity="0.0"
     inkscape:pagecheckerboard="0"
     showgrid="false"
     inkscape:zoom="0.45961941"
     inkscape:cx="237.15274"
     inkscape:cy="97.907093"
     inkscape:window-width="1280"
     inkscape:window-height="683"
     inkscape:window-x="0"
     inkscape:window-y="0"
     inkscape:window-maximized="1"
     inkscape:current-layer="svg18" />
  <title
     id="title2">game ui basic bag</title>
  <path
     d="m 269.64,77.34 c 6.06,4.21 16.72,10.8 28.88,14.59 a 7.48,7.48 0 0 0 9,-3.85 c 4.78,-9.9 16.39,-29.75 33.5,-32 A 7.84,7.84 0 0 0 346.8,44.38 29.41,29.41 0 0 0 330.44,30.94 30,30 0 0 0 311.7,31.21 C 301.22,34.64 282,43.94 267.56,67.7 a 7.16,7.16 0 0 0 2.08,9.64 z"
     id="path4" />
  <path
     d="m 359.42,112.44 a 206.15,206.15 0 0 0 26.25,10.12 11.26,11.26 0 0 0 11.55,-3.19 c 9,-10 32.24,-29.61 64.81,-12.05 3.67,2 8,-1.29 6.87,-5.22 -4.17,-14.36 -15.94,-38.1 -48.49,-41 a 50.54,50.54 0 0 0 -22.3,3.06 c -10.9,4.11 -27.87,13.07 -42.78,31.94 a 10.66,10.66 0 0 0 4.09,16.34 z"
     id="path6" />
  <path
     d="m 436.77,114.64 a 51.43,51.43 0 0 1 10.46,1 33.27,33.27 0 0 1 26.77,30.14 c 2.26,33 6.63,132 -18.17,177.08 -5.45,9.9 -19.85,10.47 -26.21,1.09 v 0 a 14.46,14.46 0 0 1 -1.78,-12.8 c 4.46,-13.1 13,-46.87 10,-107.56 0,0 -3.44,-53.23 -9.56,-78.39 a 8.65,8.65 0 0 1 8.49,-10.56 z"
     id="path8" />
  <path
     d="m 360.09,278.72 c -13,12.35 -28.94,21.85 -47.32,28.23 -16.28,5.66 -33.11,7.61 -49.73,8.37 -60.85,2.77 -100.1,-32.3 -120.17,-57.2 -8.43,-10.46 -24.86,-10.05 -32.88,0.71 -16.46,22.09 -35.93,44.29 -48.81,58.46 A 93,93 0 0 0 38,363.58 c -10.49,59.81 27,91.79 55.26,107.05 a 99.94,99.94 0 0 0 47.48,11.85 h 183.4 c 78.65,0 82.28,-76.17 82.28,-76.17 V 256.47 c 0,-9.87 -12.77,-14.33 -19.16,-6.67 a 341.6,341.6 0 0 1 -27.17,28.92 z"
     id="path10" />
  <path
     d="m 370.91,146.83 c -0.66,-0.26 -1.32,-0.51 -2,-0.74 -44.22,-15.52 -91.7,-38.56 -121.14,-53.68 a 36.54,36.54 0 0 0 -46.23,11 c -10.91,15.21 -26.12,34.2 -43.18,49 l -0.63,0.55 a 59.09,59.09 0 0 0 -12.15,73.79 q 1.62,2.87 3.5,5.9 c 32.58,52.58 98.57,76 156.89,55.8 15.62,-5.43 29.08,-13.43 40,-23.8 a 307.37,307.37 0 0 0 45.33,-53.8 43.18,43.18 0 0 0 -20.39,-64.02 z M 226.06,253.31 a 14.88,14.88 0 1 1 15.29,-14.87 15.09,15.09 0 0 1 -15.29,14.87 z"
     id="path12" />
  <metadata
     id="metadata120">
    <rdf:RDF>
      <cc:Work
         rdf:about="">
        <dc:title>game ui basic bag</dc:title>
      </cc:Work>
    </rdf:RDF>
  </metadata>
</svg>
