<?xml version="1.0" encoding="UTF-8" standalone="no"?>
<svg
   viewBox="0 0 512 512"
   x="0px"
   y="0px"
   version="1.1"
   id="svg16"
   sodipodi:docname="noun_game ui book skill up_2360118.svg"
   width="512"
   height="512"
   inkscape:version="1.1.1 (3bf5ae0d25, 2021-09-20, custom)"
   xmlns:inkscape="http://www.inkscape.org/namespaces/inkscape"
   xmlns:sodipodi="http://sodipodi.sourceforge.net/DTD/sodipodi-0.dtd"
   xmlns="http://www.w3.org/2000/svg"
   xmlns:svg="http://www.w3.org/2000/svg"
   xmlns:rdf="http://www.w3.org/1999/02/22-rdf-syntax-ns#"
   xmlns:cc="http://creativecommons.org/ns#"
   xmlns:dc="http://purl.org/dc/elements/1.1/">
  <defs
     id="defs20" />
  <sodipodi:namedview
     id="namedview18"
     pagecolor="#ffffff"
     bordercolor="#666666"
     borderopacity="1.0"
     inkscape:pageshadow="2"
     inkscape:pageopacity="0.0"
     inkscape:pagecheckerboard="0"
     showgrid="false"
     height="512px"
     inkscape:zoom="0.65"
     inkscape:cx="310.76923"
     inkscape:cy="320"
     inkscape:window-width="1280"
     inkscape:window-height="683"
     inkscape:window-x="0"
     inkscape:window-y="0"
     inkscape:window-maximized="1"
     inkscape:current-layer="svg16" />
  <title
     id="title2">game ui book skill up</title>
  <rect
     x="392.14999"
     y="299.75"
     width="55.720001"
     height="47.419998"
     rx="5.1500001"
     id="rect4" />
  <rect
     x="392.14999"
     y="370.29001"
     width="55.720001"
     height="23.709999"
     rx="5.1500001"
     id="rect6" />
  <path
     d="m 415.57,107.46 -57,67.29 a 4.27,4.27 0 0 0 3.26,7 h 30.33 v 89.7 a 5.15,5.15 0 0 0 5.15,5.15 h 45.42 a 5.14,5.14 0 0 0 5.15,-5.15 v -89.7 h 30.32 a 4.27,4.27 0 0 0 3.26,-7 l -57,-67.29 a 5.82,5.82 0 0 0 -8.89,0 z"
     id="path8" />
  <path
     d="M 333.21,300.37 C 327.62,224.11 315.1,144.13 309.49,114.49 a 15.25,15.25 0 0 0 -17.17,-12.28 v 0 a 15.27,15.27 0 0 0 -12.8,18.22 c 12,58 20.56,130.71 24.57,168.93 a 57.82,57.82 0 0 1 -21.16,51 C 244,371.88 179.86,398.49 149.44,410.1 A 17.26,17.26 0 0 1 136.78,378 1031.57,1031.57 0 0 0 246,325.71 54.69,54.69 0 0 0 274,275.11 C 270,196.71 256.47,125.2 248,87.47 A 30.78,30.78 0 0 0 208.48,65 C 145.16,85.59 88.38,113.64 56.13,130.9 a 50.32,50.32 0 0 0 -26.47,48.17 c 5.93,77.28 27.41,204.86 27.41,204.86 3.75,19.26 10,32.95 17,42.68 a 53.62,53.62 0 0 0 56.07,20.44 c 71.33,-17 131.47,-50.93 167.9,-75.08 a 79,79 0 0 0 35.17,-71.6 z m -227.54,-11 2.93,-29.37 a 9,9 0 0 0 -3.07,-7.67 L 85,234.68 a 9,9 0 0 1 2.93,-15.25 l 23.38,-8 a 8.93,8.93 0 0 0 5.93,-7 l 4.5,-28.1 a 9,9 0 0 1 15.66,-4.38 l 15,17.61 a 9,9 0 0 0 9.41,2.77 l 28.42,-8.59 a 9,9 0 0 1 10.58,12.6 L 187,223.41 a 8.94,8.94 0 0 0 1.88,10.59 l 23.55,22.09 A 12,12 0 0 1 204,276.84 l -43.56,-0.72 a 19.71,19.71 0 0 0 -13.16,4.75 l -21.83,18.78 a 12,12 0 0 1 -19.78,-10.3 z"
     id="path10" />
  <metadata
     id="metadata22">
    <rdf:RDF>
      <cc:Work
         rdf:about="">
        <dc:title>game ui book skill up</dc:title>
      </cc:Work>
    </rdf:RDF>
  </metadata>
</svg>
