<?xml version="1.0" encoding="UTF-8" standalone="no"?>
<svg
   viewBox="0 0 512 512"
   x="0px"
   y="0px"
   version="1.1"
   id="svg10"
   sodipodi:docname="character-symbolic.svg"
   width="512"
   height="512"
   inkscape:version="1.1.1 (3bf5ae0d25, 2021-09-20, custom)"
   xmlns:inkscape="http://www.inkscape.org/namespaces/inkscape"
   xmlns:sodipodi="http://sodipodi.sourceforge.net/DTD/sodipodi-0.dtd"
   xmlns="http://www.w3.org/2000/svg"
   xmlns:svg="http://www.w3.org/2000/svg"
   xmlns:rdf="http://www.w3.org/1999/02/22-rdf-syntax-ns#"
   xmlns:cc="http://creativecommons.org/ns#"
   xmlns:dc="http://purl.org/dc/elements/1.1/">
  <defs
     id="defs14" />
  <sodipodi:namedview
     id="namedview12"
     pagecolor="#ffffff"
     bordercolor="#666666"
     borderopacity="1.0"
     inkscape:pageshadow="2"
     inkscape:pageopacity="0.0"
     inkscape:pagecheckerboard="0"
     showgrid="false"
     units="px"
     inkscape:zoom="0.65"
     inkscape:cx="255.38462"
     inkscape:cy="566.15385"
     inkscape:window-width="1366"
     inkscape:window-height="699"
     inkscape:window-x="0"
     inkscape:window-y="0"
     inkscape:window-maximized="1"
     inkscape:current-layer="svg10"
     inkscape:document-units="in" />
  <title
     id="title2">game ui stats</title>
  <path
     d="m 383.7,340.37 a 43.69,43.69 0 0 1 2.66,-45.48 c 16.67,-24.09 40.16,-68.26 39.32,-125 0,0 0,-37.18 -26.77,-78.36 A 131.07,131.07 0 0 0 323.69,36.41 C 286,26.05 229,22.41 175.51,66.7 c 0,0 -65.77,52.87 -52.88,153.46 L 88.15,284 a 15.3,15.3 0 0 0 13.46,22.57 h 30.05 l 19.42,77.68 a 29.24,29.24 0 0 0 37.62,20.65 l 69.24,-33.83 a 11.412962,11.412962 0 1 1 10.78,20.12 l -23,12.34 a 11.09,11.09 0 0 0 -5.28,13.25 L 258.68,472 a 14.49,14.49 0 0 0 22.11,7.66 L 388.34,405.1 a 29.89,29.89 0 0 0 9.32,-38.64 z"
     id="path4" />
  <metadata
     id="metadata16">
    <rdf:RDF>
      <cc:Work
         rdf:about="">
        <dc:title>game ui stats</dc:title>
      </cc:Work>
    </rdf:RDF>
  </metadata>
</svg>
