<?xml version="1.0" encoding="UTF-8" standalone="no"?>
<svg
   viewBox="0 0 512 512"
   x="0px"
   y="0px"
   version="1.1"
   id="svg14"
   sodipodi:docname="noun_landscape home_2360151.svg"
   width="512"
   height="512"
   inkscape:version="1.1.1 (3bf5ae0d25, 2021-09-20, custom)"
   xmlns:inkscape="http://www.inkscape.org/namespaces/inkscape"
   xmlns:sodipodi="http://sodipodi.sourceforge.net/DTD/sodipodi-0.dtd"
   xmlns="http://www.w3.org/2000/svg"
   xmlns:svg="http://www.w3.org/2000/svg"
   xmlns:rdf="http://www.w3.org/1999/02/22-rdf-syntax-ns#"
   xmlns:cc="http://creativecommons.org/ns#"
   xmlns:dc="http://purl.org/dc/elements/1.1/">
  <defs
     id="defs18" />
  <sodipodi:namedview
     id="namedview16"
     pagecolor="#ffffff"
     bordercolor="#666666"
     borderopacity="1.0"
     inkscape:pageshadow="2"
     inkscape:pageopacity="0.0"
     inkscape:pagecheckerboard="0"
     showgrid="false"
     height="512px"
     inkscape:zoom="0.65"
     inkscape:cx="255.38462"
     inkscape:cy="320"
     inkscape:window-width="1366"
     inkscape:window-height="699"
     inkscape:window-x="0"
     inkscape:window-y="0"
     inkscape:window-maximized="1"
     inkscape:current-layer="svg14" />
  <title
     id="title2">landscape Home</title>
  <path
     d="m 39.1,265.9 h 433.8 a 15,15 0 0 0 10.7,-25.51 L 277.6,30.65 a 30.28,30.28 0 0 0 -43.2,0 l -206,209.74 a 15,15 0 0 0 10.7,25.51 z"
     id="path4" />
  <path
     d="m 410.51,471 a 1528.29,1528.29 0 0 0 8.68,-155.65 19.58,19.58 0 0 0 -19.58,-19.63 H 112.39 a 19.58,19.58 0 0 0 -19.58,19.63 1528.29,1528.29 0 0 0 8.68,155.65 24.79,24.79 0 0 0 24.64,22.09 h 67.25 a 15.85,15.85 0 0 0 15.85,-15.85 V 390.87 A 46.77,46.77 0 0 1 256,344.1 v 0 a 46.77,46.77 0 0 1 46.77,46.77 v 86.39 a 15.85,15.85 0 0 0 15.85,15.85 h 67.25 A 24.79,24.79 0 0 0 410.51,471 Z"
     id="path6" />
  <path
     d="m 402.59,116.79 a 11.82,11.82 0 0 0 20.18,-8.35 V 32.91 a 14,14 0 0 0 -14,-14 h -34.16 a 14,14 0 0 0 -14,14 v 35.93 a 14.39,14.39 0 0 0 4.2,10.16 z"
     id="path8" />
  <metadata
     id="metadata20">
    <rdf:RDF>
      <cc:Work
         rdf:about="">
        <dc:title>landscape Home</dc:title>
      </cc:Work>
    </rdf:RDF>
  </metadata>
</svg>
