<?xml version="1.0" encoding="UTF-8" standalone="no"?>
<svg
   viewBox="0 0 512 512"
   x="0px"
   y="0px"
   version="1.1"
   id="svg24"
   sodipodi:docname="noun_skill vision_2360264.svg"
   width="512"
   height="512"
   inkscape:version="1.1.1 (3bf5ae0d25, 2021-09-20, custom)"
   xmlns:inkscape="http://www.inkscape.org/namespaces/inkscape"
   xmlns:sodipodi="http://sodipodi.sourceforge.net/DTD/sodipodi-0.dtd"
   xmlns="http://www.w3.org/2000/svg"
   xmlns:svg="http://www.w3.org/2000/svg"
   xmlns:rdf="http://www.w3.org/1999/02/22-rdf-syntax-ns#"
   xmlns:cc="http://creativecommons.org/ns#"
   xmlns:dc="http://purl.org/dc/elements/1.1/">
  <defs
     id="defs28" />
  <sodipodi:namedview
     id="namedview26"
     pagecolor="#ffffff"
     bordercolor="#666666"
     borderopacity="1.0"
     inkscape:pageshadow="2"
     inkscape:pageopacity="0.0"
     inkscape:pagecheckerboard="0"
     showgrid="false"
     units="px"
     inkscape:zoom="0.65"
     inkscape:cx="247.69231"
     inkscape:cy="320"
     inkscape:window-width="1280"
     inkscape:window-height="683"
     inkscape:window-x="0"
     inkscape:window-y="0"
     inkscape:window-maximized="1"
     inkscape:current-layer="svg24" />
  <title
     id="title2">skill vision</title>
  <path
     d="M 467.44,244.36 C 430.65,239 404.69,215.67 386.56,201.42 A 193.82,193.82 0 0 1 368.11,184.79 C 320.1,136 256,136 256,136 v 0 c 0,0 -64.1,0 -112.11,48.83 a 193.82,193.82 0 0 1 -18.45,16.63 C 107.31,215.67 81.35,239 44.56,244.36 a 17.49,17.49 0 0 0 -15,17.27 v 0 a 17.48,17.48 0 0 0 15,17.26 c 36.79,5.37 62.75,28.7 80.88,42.95 a 193.82,193.82 0 0 1 18.45,16.63 C 191.9,387.3 256,387.3 256,387.3 v 0 c 0,0 64.1,0 112.11,-48.83 a 193.82,193.82 0 0 1 18.45,-16.63 c 18.13,-14.25 44.09,-37.58 80.88,-42.95 a 17.48,17.48 0 0 0 15,-17.26 v 0 a 17.49,17.49 0 0 0 -15,-17.27 z m -88.22,27.28 a 235.19,235.19 0 0 0 -37.9,25.87 133.3,133.3 0 0 1 -81.8,30.95 c -1.16,0 -2.34,0 -3.52,0 -1.18,0 -2.36,0 -3.52,0 a 133.3,133.3 0 0 1 -81.8,-30.95 235.19,235.19 0 0 0 -37.9,-25.87 11.39,11.39 0 0 1 0,-20 234.52,234.52 0 0 0 37.89,-25.87 133.38,133.38 0 0 1 82,-30.93 c 1.08,0 2.16,0 3.25,0 1.09,0 2.17,0 3.25,0 a 133.38,133.38 0 0 1 82,30.93 234.52,234.52 0 0 0 37.89,25.87 11.39,11.39 0 0 1 0.16,20 z"
     id="path4" />
  <circle
     cx="256"
     cy="261.63"
     r="40.119999"
     id="circle6" />
  <path
     d="m 273.73,37 a 24.77,24.77 0 0 0 -35.59,0.14 27.84,27.84 0 0 0 -7.14,21.36 88.88,88.88 0 0 0 19.65,49.33 6.87,6.87 0 0 0 10.6,0 A 88.91,88.91 0 0 0 281,58.43 27.72,27.72 0 0 0 273.73,37 Z"
     id="path8" />
  <path
     d="m 441.94,98.84 a 24.76,24.76 0 0 0 -27.23,-22.92 27.77,27.77 0 0 0 -19.23,11.7 88.93,88.93 0 0 0 -16.94,50.32 6.87,6.87 0 0 0 8.07,6.88 88.91,88.91 0 0 0 47,-25 27.72,27.72 0 0 0 8.33,-20.98 z"
     id="path10" />
  <path
     d="m 70.06,98.84 a 24.77,24.77 0 0 1 27.23,-22.92 27.81,27.81 0 0 1 19.24,11.7 88.9,88.9 0 0 1 16.93,50.32 6.87,6.87 0 0 1 -8.07,6.88 88.89,88.89 0 0 1 -47,-25 27.73,27.73 0 0 1 -8.33,-20.98 z"
     id="path12" />
  <path
     d="m 273.73,475 a 24.77,24.77 0 0 1 -35.59,-0.14 27.84,27.84 0 0 1 -7.14,-21.36 88.88,88.88 0 0 1 19.65,-49.33 6.87,6.87 0 0 1 10.6,0 88.91,88.91 0 0 1 19.75,49.4 27.72,27.72 0 0 1 -7.27,21.43 z"
     id="path14" />
  <path
     d="m 441.94,413.16 a 24.76,24.76 0 0 1 -27.23,22.92 27.77,27.77 0 0 1 -19.23,-11.7 88.93,88.93 0 0 1 -16.94,-50.32 6.87,6.87 0 0 1 8.07,-6.88 88.91,88.91 0 0 1 47,25 27.72,27.72 0 0 1 8.33,20.98 z"
     id="path16" />
  <path
     d="m 70.06,413.16 a 24.77,24.77 0 0 0 27.23,22.92 27.81,27.81 0 0 0 19.24,-11.7 88.9,88.9 0 0 0 16.93,-50.32 6.87,6.87 0 0 0 -8.07,-6.88 88.89,88.89 0 0 0 -47,25 27.73,27.73 0 0 0 -8.33,20.98 z"
     id="path18" />
  <metadata
     id="metadata30">
    <rdf:RDF>
      <cc:Work
         rdf:about="">
        <dc:title>skill vision</dc:title>
      </cc:Work>
    </rdf:RDF>
  </metadata>
</svg>
